# xmcd CD database file
#
# Track frame offsets:
#	150
#	10094
#	19377
#	29784
#	38265
#	51517
#	63714
#	72865
#	82758
#	94902
#	106657
#	118432
#	130865
#	139840
#	147881
#	159458
#	172439
#	184592
#	195846
#	207451
#	214622
#	228618
#	242937
#	252561
#	261902
#
# Disc length: 3635 seconds
#
# Revision: 2
# Processed by: cddbd v1.5.2PL0 Copyright (c) Steve Scherf et al.
# Submitted via: CDex 1.94
#
DISCID=770e3119
DTITLE=Various Artist - In The Beginning =Mod Story 02
DYEAR=2012
DGENRE=R&B
TTITLE0=Dick And Dee Dee - The Mountains high
TTITLE1=The Marathons - Peanut Butter
TTITLE2=Don Covay - Pony Time
TTITLE3=Dee Clark - Hey Little Girl
TTITLE4=Diana Ross and the Supremes - Buttered Popcorn
TTITLE5=Bobby Bland - I Pity the Fool
TTITLE6=Joey Dee and the Starliters - Peppermint Twist
TTITLE7=Billy Preston - Volcano
TTITLE8=The Coasters - Searchin'
TTITLE9=The Drifters - Sweets For My Sweet
TTITLE10=Freddie King - Hide Away
TTITLE11=Ernie K. Doe - A Certain Girl
TTITLE12=Maximillian - The Snake
TTITLE13=Marty Lewis - Satisfied With My lovin'
TTITLE14=Huey "Piano" Smith and His Clowns - Don't You Just Know It
TTITLE15=Ike and Tina Turner - A Fool In Love
TTITLE16=Little Walter - My Babe
TTITLE17=The Duels - Stick Shift
TTITLE18=The Miracles - Ain't It Baby
TTITLE19=Maurice Williams and The Zodiacs - Stay
TTITLE20=Etta James - I Just Want To Make Love To You
TTITLE21=Ray Charles - What'd I Say Pt.1
TTITLE22=The Shirelles - Mama Said
TTITLE23=The Top Notes - Twist and Shout
TTITLE24=Phil Upchurch - You Can't Sit Down, (Part 2)
EXTD=
EXTT0=
EXTT1=
EXTT2=
EXTT3=
EXTT4=
EXTT5=
EXTT6=
EXTT7=
EXTT8=
EXTT9=
EXTT10=
EXTT11=
EXTT12=
EXTT13=
EXTT14=
EXTT15=
EXTT16=
EXTT17=
EXTT18=
EXTT19=
EXTT20=
EXTT21=
EXTT22=
EXTT23=
EXTT24=
PLAYORDER=
